<svg xmlns="http://www.w3.org/2000/svg" xmlns:xlink="http://www.w3.org/1999/xlink" version="1.1" width="256" height="256" viewBox="0 0 256 256" xml:space="preserve">
<desc>Created with Fabric.js 1.7.22</desc>
<defs>
</defs>
<g transform="translate(128 128) scale(0.87 0.87)" style="">
	<g style="stroke: none; stroke-width: 0; stroke-dasharray: none; stroke-linecap: butt; stroke-linejoin: miter; stroke-miterlimit: 10; fill: none; fill-rule: nonzero; opacity: 1;" transform="translate(-144.89999999999998 -144.90000000000003) scale(3.22 3.22)" >
	<circle cx="45" cy="45" r="32.5" style="stroke: none; stroke-width: 1; stroke-dasharray: none; stroke-linecap: butt; stroke-linejoin: miter; stroke-miterlimit: 10; fill: rgb(56,136,189); fill-rule: nonzero; opacity: 1;" transform="  matrix(1 0 0 1 0 0) "/>
	<path d="M 84.099 54.045 H 5.901 C 3.194 54.045 1 51.85 1 49.144 v -8.287 c 0 -2.707 2.194 -4.901 4.901 -4.901 h 78.198 c 2.707 0 4.901 2.194 4.901 4.901 v 8.287 C 89 51.85 86.806 54.045 84.099 54.045 z" style="stroke: none; stroke-width: 1; stroke-dasharray: none; stroke-linecap: butt; stroke-linejoin: miter; stroke-miterlimit: 10; fill: rgb(230,230,230); fill-rule: nonzero; opacity: 1;" transform=" matrix(1 0 0 1 0 0) " stroke-linecap="round" />
	<path d="M 84.099 34.955 h -6.725 C 73.009 20.876 59.81 11.105 45 11.105 c -14.809 0 -28.009 9.771 -32.374 23.85 H 5.901 C 2.647 34.955 0 37.603 0 40.856 v 8.287 c 0 3.254 2.647 5.901 5.901 5.901 h 6.725 C 16.991 69.124 30.191 78.896 45 78.896 c 14.81 0 28.009 -9.772 32.374 -23.851 h 6.725 c 3.254 0 5.901 -2.647 5.901 -5.901 v -8.287 C 90 37.603 87.353 34.955 84.099 34.955 z M 62.739 34.955 c -0.541 -3.235 -1.32 -6.226 -2.299 -8.918 h 10.165 c 1.987 2.667 3.567 5.664 4.648 8.918 H 62.739 z M 46 13.186 c 4.459 0.53 8.555 4.565 11.429 10.852 H 46 V 13.186 z M 44 24.037 H 32.572 c 2.874 -6.286 6.97 -10.322 11.428 -10.852 V 24.037 z M 44 26.037 v 8.918 H 29.301 c 0.567 -3.253 1.392 -6.25 2.428 -8.918 H 44 z M 46 26.037 h 12.272 c 1.035 2.668 1.86 5.664 2.427 8.918 H 46 V 26.037 z M 68.985 24.037 h -9.334 c -1.842 -4.333 -4.234 -7.752 -6.978 -9.984 C 59.029 15.643 64.712 19.174 68.985 24.037 z M 37.329 14.053 c -2.745 2.231 -5.137 5.651 -6.98 9.984 h -9.334 C 25.288 19.174 30.973 15.642 37.329 14.053 z M 19.396 26.037 h 10.165 c -0.98 2.693 -1.759 5.683 -2.301 8.918 H 14.747 C 15.828 31.701 17.408 28.704 19.396 26.037 z M 2 49.144 v -8.287 c 0 -2.151 1.75 -3.901 3.901 -3.901 h 62.842 v 16.09 H 5.901 C 3.75 53.045 2 51.295 2 49.144 z M 44 65.963 v 10.852 c -4.458 -0.53 -8.554 -4.566 -11.429 -10.852 H 44 z M 31.728 63.963 c -1.035 -2.668 -1.861 -5.664 -2.428 -8.918 H 44 v 8.918 H 31.728 z M 46 65.963 h 11.429 C 54.555 72.249 50.458 76.285 46 76.815 V 65.963 z M 46 63.963 v -8.918 h 14.7 c -0.567 3.253 -1.392 6.25 -2.428 8.918 H 46 z M 27.26 55.045 c 0.541 3.234 1.321 6.225 2.301 8.918 H 19.396 c -1.987 -2.667 -3.568 -5.664 -4.648 -8.918 H 27.26 z M 21.015 65.963 h 9.334 c 1.843 4.333 4.235 7.753 6.98 9.984 C 30.973 74.358 25.288 70.826 21.015 65.963 z M 52.671 75.947 c 2.745 -2.231 5.138 -5.651 6.98 -9.984 h 9.334 C 64.712 70.826 59.028 74.358 52.671 75.947 z M 70.604 63.963 H 60.439 c 0.979 -2.693 1.759 -5.683 2.3 -8.918 h 12.513 C 74.171 58.299 72.591 61.296 70.604 63.963 z M 88 49.144 c 0 2.151 -1.75 3.901 -3.901 3.901 H 70.743 v -16.09 h 13.355 c 2.151 0 3.901 1.75 3.901 3.901 V 49.144 z" style="stroke: none; stroke-width: 1; stroke-dasharray: none; stroke-linecap: butt; stroke-linejoin: miter; stroke-miterlimit: 10; fill: rgb(0,34,56); fill-rule: nonzero; opacity: 1;" transform=" matrix(1 0 0 1 0 0) " stroke-linecap="round" />
	<path d="M 83.617 40.922 c -1.754 -1.755 -4.608 -1.753 -6.362 0 c -0.851 0.85 -1.318 1.979 -1.318 3.181 c 0 0.86 0.249 1.679 0.697 2.388 l -2.946 2.946 l 1.414 1.414 l 2.946 -2.946 c 0.71 0.448 1.529 0.697 2.389 0.697 c 1.201 0 2.331 -0.469 3.181 -1.318 C 85.371 45.53 85.371 42.676 83.617 40.922 z M 82.203 45.87 c -0.946 0.946 -2.59 0.944 -3.534 0 c -0.473 -0.472 -0.732 -1.099 -0.732 -1.767 c 0 -0.667 0.26 -1.295 0.732 -1.767 c 0.487 -0.487 1.127 -0.73 1.768 -0.73 c 0.64 0 1.279 0.243 1.767 0.73 C 83.177 43.311 83.177 44.896 82.203 45.87 z" style="stroke: none; stroke-width: 1; stroke-dasharray: none; stroke-linecap: butt; stroke-linejoin: miter; stroke-miterlimit: 10; fill: rgb(0,34,56); fill-rule: nonzero; opacity: 1;" transform=" matrix(1 0 0 1 0 0) " stroke-linecap="round" />
</g>
</g>
</svg>