<?xml version="1.0" encoding="UTF-8" standalone="no"?>
<!DOCTYPE svg PUBLIC "-//W3C//DTD SVG 1.1//EN" "http://www.w3.org/Graphics/SVG/1.1/DTD/svg11.dtd">
<svg version="1.1" xmlns="http://www.w3.org/2000/svg" xmlns:xlink="http://www.w3.org/1999/xlink" preserveAspectRatio="xMidYMid meet" viewBox="0 0 64 64" width="64" height="64"><defs><path d="M62.93 0.08C63.52 0.08 64 0.56 64 1.15C64 13.72 64 50.36 64 62.93C64 63.52 63.52 64 62.93 64C50.34 64 13.66 64 1.07 64C0.48 64 0 63.52 0 62.93C0 50.36 0 13.72 0 1.15C0 0.56 0.48 0.08 1.07 0.08C13.66 0.08 50.34 0.08 62.93 0.08Z" id="k1TIPuxeO"></path><path d="M62.71 31.89C62.71 48.87 48.93 62.65 31.97 62.65C15 62.65 1.23 48.87 1.23 31.89C1.23 14.91 15 1.13 31.97 1.13C48.93 1.13 62.71 14.91 62.71 31.89Z" id="b1TSiOmkuH"></path><path d="M60.54 31.87L44.01 25.47L34.3 32.45" id="d3KzR4QncJ"></path><path d="M46.44 57.09L42.79 41.47L32.43 35.54" id="f23a9IX8FJ"></path><path d="M37.88 3.65L28.1 15.62L29.65 27.7" id="btbGTTuB3"></path><path d="M13.78 53.86L26.79 45.84L29.13 33.9" id="b4Zk8LE1AN"></path><path d="" id="d1uo5eXAw1"></path><path d="M63.46 61.41C63.46 62.57 62.5 63.51 61.32 63.51C60.14 63.51 59.18 62.57 59.18 61.41C59.18 60.26 60.14 59.32 61.32 59.32C62.5 59.32 63.46 60.26 63.46 61.41Z" id="eng45v8oH"></path><path d="M4.66 24.74L17.76 33L29.15 29.47" id="a1c22twu2m"></path><path d="M38.83 31.69C38.83 35.79 35.47 39.12 31.33 39.12C27.19 39.12 23.83 35.79 23.83 31.69C23.83 27.58 27.19 24.25 31.33 24.25C35.47 24.25 38.83 27.58 38.83 31.69Z" id="f2w9Wuk9ae"></path><path d="M63.56 2.6C63.56 3.76 62.6 4.7 61.42 4.7C60.24 4.7 59.28 3.76 59.28 2.6C59.28 1.44 60.24 0.5 61.42 0.5C62.6 0.5 63.56 1.44 63.56 2.6Z" id="bgociR7w4"></path><path d="M4.66 2.78C4.66 3.93 3.7 4.87 2.52 4.87C1.34 4.87 0.38 3.93 0.38 2.78C0.38 1.62 1.34 0.68 2.52 0.68C3.7 0.68 4.66 1.62 4.66 2.78Z" id="gdd6ZHjfd"></path><path d="M4.66 61.41C4.66 62.57 3.7 63.51 2.52 63.51C1.34 63.51 0.38 62.57 0.38 61.41C0.38 60.26 1.34 59.32 2.52 59.32C3.7 59.32 4.66 60.26 4.66 61.41Z" id="a1oPCRXRXp"></path><path d="M35.9 31.69C35.9 34.22 33.85 36.29 31.33 36.29C28.81 36.29 26.76 34.22 26.76 31.69C26.76 29.15 28.81 27.08 31.33 27.08C33.85 27.08 35.9 29.15 35.9 31.69Z" id="bBO2SJvHG"></path></defs><g><g><g><use xlink:href="#k1TIPuxeO" opacity="1" fill="#727272" fill-opacity="1"></use></g><g><use xlink:href="#b1TSiOmkuH" opacity="1" fill="#323232" fill-opacity="1"></use><g><use xlink:href="#b1TSiOmkuH" opacity="1" fill-opacity="0" stroke="#515151" stroke-width="2" stroke-opacity="1"></use></g></g><g><use xlink:href="#d3KzR4QncJ" opacity="1" fill="#bababa" fill-opacity="1"></use><g><use xlink:href="#d3KzR4QncJ" opacity="1" fill-opacity="0" stroke="#7a7a7a" stroke-width="2" stroke-opacity="1"></use></g></g><g><use xlink:href="#f23a9IX8FJ" opacity="1" fill="#bababa" fill-opacity="1"></use><g><use xlink:href="#f23a9IX8FJ" opacity="1" fill-opacity="0" stroke="#7a7a7a" stroke-width="2" stroke-opacity="1"></use></g></g><g><use xlink:href="#btbGTTuB3" opacity="1" fill="#bababa" fill-opacity="1"></use><g><use xlink:href="#btbGTTuB3" opacity="1" fill-opacity="0" stroke="#7a7a7a" stroke-width="2" stroke-opacity="1"></use></g></g><g><use xlink:href="#b4Zk8LE1AN" opacity="1" fill="#bababa" fill-opacity="1"></use><g><use xlink:href="#b4Zk8LE1AN" opacity="1" fill-opacity="0" stroke="#7a7a7a" stroke-width="2" stroke-opacity="1"></use></g></g><g><g><use xlink:href="#d1uo5eXAw1" opacity="1" fill-opacity="0" stroke="#7a7a7a" stroke-width="2" stroke-opacity="1"></use></g></g><g><use xlink:href="#eng45v8oH" opacity="1" fill="#565656" fill-opacity="1"></use><g><use xlink:href="#eng45v8oH" opacity="1" fill-opacity="0" stroke="#2d2d2d" stroke-width="1" stroke-opacity="1"></use></g></g><g><use xlink:href="#a1c22twu2m" opacity="1" fill="#bababa" fill-opacity="1"></use><g><use xlink:href="#a1c22twu2m" opacity="1" fill-opacity="0" stroke="#7a7a7a" stroke-width="2" stroke-opacity="1"></use></g></g><g><use xlink:href="#f2w9Wuk9ae" opacity="1" fill="#0c0c0c" fill-opacity="1"></use></g><g><use xlink:href="#bgociR7w4" opacity="1" fill="#565656" fill-opacity="1"></use><g><use xlink:href="#bgociR7w4" opacity="1" fill-opacity="0" stroke="#2d2d2d" stroke-width="1" stroke-opacity="1"></use></g></g><g><use xlink:href="#gdd6ZHjfd" opacity="1" fill="#565656" fill-opacity="1"></use><g><use xlink:href="#gdd6ZHjfd" opacity="1" fill-opacity="0" stroke="#2d2d2d" stroke-width="1" stroke-opacity="1"></use></g></g><g><use xlink:href="#a1oPCRXRXp" opacity="1" fill="#565656" fill-opacity="1"></use><g><use xlink:href="#a1oPCRXRXp" opacity="1" fill-opacity="0" stroke="#2d2d2d" stroke-width="1" stroke-opacity="1"></use></g></g><g><use xlink:href="#bBO2SJvHG" opacity="1" fill="#2c2e2f" fill-opacity="1"></use><g><use xlink:href="#bBO2SJvHG" opacity="1" fill-opacity="0" stroke="#595959" stroke-width="1" stroke-opacity="1"></use></g></g></g></g></svg>