<?xml version="1.0" encoding="UTF-8" standalone="no"?>
<!DOCTYPE svg PUBLIC "-//W3C//DTD SVG 1.1//EN" "http://www.w3.org/Graphics/SVG/1.1/DTD/svg11.dtd">
<svg version="1.1" xmlns="http://www.w3.org/2000/svg" xmlns:xlink="http://www.w3.org/1999/xlink" preserveAspectRatio="xMidYMid meet" viewBox="0 0 64 64" width="64" height="64"><defs><path d="M45.09 32C45.09 43.87 35.72 53.5 24.18 53.5C12.64 53.5 3.27 43.87 3.27 32C3.27 20.13 12.64 10.5 24.18 10.5C35.72 10.5 45.09 20.13 45.09 32Z" id="cqBqD7vv4"></path><path d="M58.58 22.56C59.76 22.56 60.73 23.52 60.73 24.7C60.73 26.29 60.73 28.89 60.73 30.48C60.73 31.66 59.76 32.62 58.58 32.62C57.52 32.62 56.5 32.62 55.44 32.62C54.25 32.62 53.29 31.66 53.29 30.48C53.29 28.89 53.29 26.29 53.29 24.7C53.29 23.52 54.25 22.56 55.44 22.56C56.5 22.56 57.52 22.56 58.58 22.56Z" id="a5twoNlvk1"></path><path d="M58.58 34.54C59.76 34.54 60.73 35.51 60.73 36.69C60.73 38.28 60.73 40.88 60.73 42.46C60.73 43.65 59.76 44.61 58.58 44.61C57.52 44.61 56.5 44.61 55.44 44.61C54.25 44.61 53.29 43.65 53.29 42.46C53.29 40.88 53.29 38.28 53.29 36.69C53.29 35.51 54.25 34.54 55.44 34.54C56.5 34.54 57.52 34.54 58.58 34.54Z" id="bab8sP5jB"></path><path d="M40.01 31.34L31.17 28.24L25.84 32.04" id="b7m1M5iHit"></path><path d="M53.75 23.4C55.55 23.4 57.01 24.86 57.01 26.66C57.01 27.68 57.01 27.5 57.01 28.52C57.01 30.32 55.55 31.78 53.75 31.78C50.1 31.78 42.4 31.78 38.74 31.78C36.94 31.78 35.48 30.32 35.48 28.52C35.48 27.5 35.48 27.68 35.48 26.66C35.48 24.86 36.94 23.4 38.74 23.4C42.4 23.4 50.1 23.4 53.75 23.4Z" id="e7oKWKIRh"></path><path d="M53.75 35.39C55.55 35.39 57.01 36.85 57.01 38.65C57.01 39.67 57.01 39.49 57.01 40.51C57.01 42.31 55.55 43.77 53.75 43.77C50.1 43.77 42.4 43.77 38.74 43.77C36.94 43.77 35.48 42.31 35.48 40.51C35.48 39.49 35.48 39.67 35.48 38.65C35.48 36.85 36.94 35.39 38.74 35.39C42.4 35.39 50.1 35.39 53.75 35.39Z" id="by1j7RuOx"></path><path d="M31.61 46.84L30.22 37.22L24.54 34" id="babYNbuWI"></path><path d="M31.61 15.63L24.18 21.5L24.18 28.24" id="a2raNTXndM"></path><path d="M12.69 43.77L21.11 39.59L22.41 32.99" id="d2OkuSXI8G"></path><path d="M8.73 26.21L16.22 32L22.41 30.1" id="d2SYaxcgyL"></path><path d="M29.91 32C29.91 35.48 27.34 38.31 24.18 38.31C21.02 38.31 18.45 35.48 18.45 32C18.45 28.52 21.02 25.69 24.18 25.69C27.34 25.69 29.91 28.52 29.91 32Z" id="b9OVTn7y2"></path><path d="" id="c7STWvpyL"></path></defs><g><g><g><use xlink:href="#cqBqD7vv4" opacity="1" fill="#49bbd7" fill-opacity="1"></use><g><use xlink:href="#cqBqD7vv4" opacity="1" fill-opacity="0" stroke="#000000" stroke-width="3" stroke-opacity="1"></use></g></g><g><use xlink:href="#a5twoNlvk1" opacity="1" fill="#000000" fill-opacity="1"></use><g><use xlink:href="#a5twoNlvk1" opacity="1" fill-opacity="0" stroke="#7a7a7a" stroke-width="1" stroke-opacity="1"></use></g></g><g><use xlink:href="#bab8sP5jB" opacity="1" fill="#000000" fill-opacity="1"></use><g><use xlink:href="#bab8sP5jB" opacity="1" fill-opacity="0" stroke="#7a7a7a" stroke-width="1" stroke-opacity="1"></use></g></g><g><use xlink:href="#b7m1M5iHit" opacity="1" fill="#bababa" fill-opacity="1"></use><g><use xlink:href="#b7m1M5iHit" opacity="1" fill-opacity="0" stroke="#7a7a7a" stroke-width="2" stroke-opacity="1"></use></g></g><g><use xlink:href="#e7oKWKIRh" opacity="1" fill="#000000" fill-opacity="1"></use><g><use xlink:href="#e7oKWKIRh" opacity="1" fill-opacity="0" stroke="#7a7a7a" stroke-width="1" stroke-opacity="1"></use></g></g><g><use xlink:href="#by1j7RuOx" opacity="1" fill="#000000" fill-opacity="1"></use><g><use xlink:href="#by1j7RuOx" opacity="1" fill-opacity="0" stroke="#7a7a7a" stroke-width="1" stroke-opacity="1"></use></g></g><g><use xlink:href="#babYNbuWI" opacity="1" fill="#bababa" fill-opacity="1"></use><g><use xlink:href="#babYNbuWI" opacity="1" fill-opacity="0" stroke="#7a7a7a" stroke-width="2" stroke-opacity="1"></use></g></g><g><use xlink:href="#a2raNTXndM" opacity="1" fill="#bababa" fill-opacity="1"></use><g><use xlink:href="#a2raNTXndM" opacity="1" fill-opacity="0" stroke="#7a7a7a" stroke-width="2" stroke-opacity="1"></use></g></g><g><use xlink:href="#d2OkuSXI8G" opacity="1" fill="#bababa" fill-opacity="1"></use><g><use xlink:href="#d2OkuSXI8G" opacity="1" fill-opacity="0" stroke="#7a7a7a" stroke-width="2" stroke-opacity="1"></use></g></g><g><use xlink:href="#d2SYaxcgyL" opacity="1" fill="#bababa" fill-opacity="1"></use><g><use xlink:href="#d2SYaxcgyL" opacity="1" fill-opacity="0" stroke="#7a7a7a" stroke-width="2" stroke-opacity="1"></use></g></g><g><use xlink:href="#b9OVTn7y2" opacity="1" fill="#0c0c0c" fill-opacity="1"></use></g><g><g><use xlink:href="#c7STWvpyL" opacity="1" fill-opacity="0" stroke="#7a7a7a" stroke-width="2" stroke-opacity="1"></use></g></g></g></g></svg>